<?xml version="1.0" standalone="no"?>
<!DOCTYPE svg PUBLIC "-//W3C//DTD SVG 20010904//EN"
 "http://www.w3.org/TR/2001/REC-SVG-20010904/DTD/svg10.dtd">
<svg version="1.0" xmlns="http://www.w3.org/2000/svg"
 width="1500.000000pt" height="1500.000000pt" viewBox="0 0 1500.000000 1500.000000"
 preserveAspectRatio="xMidYMid meet">
<metadata>
Created by potrace 1.14, written by Peter Selinger 2001-2017
</metadata>
<g transform="translate(0.000000,1500.000000) scale(0.100000,-0.100000)"
fill="#000000" stroke="none">
<path d="M0 7500 l0 -7500 7500 0 7500 0 0 7500 0 7500 -7500 0 -7500 0 0
-7500z m7260 2965 c0 -23 -3 -25 -50 -25 l-50 0 0 -140 0 -140 -35 0 -34 0 -3
138 -3 137 -47 3 c-43 3 -48 5 -48 28 l0 24 135 0 135 0 0 -25z m190 -40 l0
-65 55 0 55 0 0 65 0 65 40 0 40 0 0 -165 0 -165 -40 0 -40 0 0 75 0 75 -55 0
-55 0 0 -75 0 -75 -40 0 -40 0 0 165 0 165 40 0 40 0 0 -65z m548 38 c3 -21
-1 -22 -70 -25 l-73 -3 -3 -37 -3 -38 65 0 c64 0 66 -1 66 -25 0 -24 -2 -25
-66 -25 l-65 0 3 -47 3 -48 73 -3 c69 -3 72 -4 72 -27 0 -25 -1 -25 -95 -25
-133 0 -135 2 -135 165 0 164 2 167 133 163 86 -3 92 -4 95 -25z m-3809 -653
c79 -6 146 -12 149 -14 2 -3 -4 -52 -14 -110 l-17 -106 -249 0 c-283 0 -309
-5 -326 -62 -9 -25 -42 -230 -42 -253 0 -3 113 -5 251 -5 l250 0 -7 -57 c-3
-32 -9 -78 -13 -103 l-6 -45 -252 -3 -251 -2 -12 -86 c-7 -47 -24 -169 -39
-272 l-27 -187 -147 -3 c-81 -1 -147 0 -147 4 0 3 34 250 75 547 72 517 77
545 108 607 37 74 82 115 159 141 44 15 85 18 233 19 99 0 245 -5 324 -10z
m930 -5 c16 -8 31 -22 35 -31 3 -9 51 -287 106 -618 55 -330 103 -613 106
-628 l6 -28 -146 0 c-80 0 -146 1 -147 3 0 1 -10 76 -22 167 l-22 165 -226 3
-227 2 -43 -102 c-23 -57 -55 -132 -70 -168 l-27 -65 -151 -3 c-83 -1 -151 1
-151 4 0 4 126 292 281 641 203 457 288 639 306 653 23 18 41 20 195 20 129 0
176 -3 197 -15z m851 7 c0 -4 -40 -295 -90 -647 -49 -352 -90 -646 -90 -652 0
-10 -37 -13 -150 -13 l-150 0 5 23 c2 12 43 299 90 637 47 338 87 625 90 638
5 22 8 22 150 22 80 0 145 -3 145 -8z m1230 -4 c0 -7 -7 -58 -15 -113 -8 -55
-15 -103 -15 -107 0 -4 -89 -9 -197 -10 l-198 -3 -75 -537 -74 -538 -149 0
-149 0 6 28 c7 34 146 1025 146 1041 0 8 -56 11 -196 11 -181 0 -195 1 -190
18 2 9 10 63 17 120 l12 102 539 0 c424 0 538 -3 538 -12z m450 3 c0 -7 -40
-291 -64 -458 l-5 -33 230 0 c126 0 229 3 229 7 0 14 60 448 65 471 5 22 8 22
151 22 l147 0 -6 -27 c-2 -16 -44 -313 -93 -660 l-88 -633 -148 0 -148 0 5 23
c7 33 75 526 75 548 0 18 -11 19 -224 19 l-223 0 -6 -27 c-3 -16 -22 -148 -43
-295 l-37 -268 -149 0 -148 0 5 23 c2 12 43 299 90 637 47 338 87 625 90 638
5 22 8 22 150 22 80 0 145 -4 145 -9z m1719 -1 c79 -6 146 -12 149 -14 2 -3
-4 -52 -14 -110 l-17 -106 -249 0 c-283 0 -309 -5 -326 -62 -9 -25 -42 -230
-42 -253 0 -3 113 -5 251 -5 l250 0 -7 -57 c-3 -32 -9 -78 -13 -103 l-6 -45
-252 -3 -251 -2 -12 -86 c-7 -47 -24 -169 -39 -272 l-27 -187 -147 -3 c-81 -1
-147 0 -147 4 0 3 34 250 75 547 72 517 77 545 108 607 37 74 82 115 159 141
44 15 85 18 233 19 99 0 245 -5 324 -10z m621 7 c0 -2 -27 -192 -60 -422 -63
-441 -70 -535 -44 -590 29 -61 141 -90 258 -65 99 20 158 93 187 232 7 29 37
231 68 448 l57 395 148 3 148 3 -5 -33 c-3 -18 -31 -208 -62 -423 -31 -214
-67 -431 -80 -482 -57 -219 -157 -327 -345 -374 -84 -21 -339 -18 -415 4 -117
36 -190 94 -233 187 -22 47 -27 72 -30 175 -3 105 3 169 53 520 31 220 58 406
60 413 3 9 42 12 150 12 80 0 145 -1 145 -3z m1228 -474 c-37 -263 -67 -500
-65 -528 3 -74 8 -75 290 -75 l237 0 0 -109 c0 -104 -1 -109 -22 -115 -13 -4
-149 -9 -303 -13 -246 -5 -287 -4 -338 11 -104 30 -167 116 -167 227 0 24 31
274 70 554 38 281 70 513 70 518 0 4 67 7 148 7 l148 0 -68 -477z m-6739
-1318 c16 -8 31 -22 35 -31 3 -9 51 -287 106 -618 55 -330 103 -613 106 -628
l6 -28 -146 0 c-80 0 -146 1 -147 3 0 1 -10 76 -22 167 l-22 165 -226 3 -227
2 -43 -102 c-23 -57 -55 -132 -70 -168 l-27 -65 -151 -3 c-83 -1 -151 1 -151
4 0 4 126 292 281 641 203 457 288 639 306 653 23 18 41 20 195 20 129 0 176
-3 197 -15z m1421 3 c0 -7 -7 -58 -15 -113 -8 -55 -15 -103 -15 -107 0 -4 -89
-9 -197 -10 l-198 -3 -75 -537 -74 -538 -149 0 -149 0 6 28 c7 34 146 1025
146 1041 0 8 -56 11 -196 11 -181 0 -195 1 -190 18 2 9 10 63 17 120 l12 102
539 0 c424 0 538 -3 538 -12z m450 3 c0 -7 -40 -291 -64 -458 l-5 -33 230 0
c126 0 229 3 229 7 0 14 60 448 65 471 5 22 8 22 151 22 l147 0 -6 -27 c-2
-16 -44 -313 -93 -660 l-88 -633 -148 0 -148 0 5 23 c7 33 75 526 75 548 0 18
-11 19 -224 19 l-223 0 -6 -27 c-3 -16 -22 -148 -43 -295 l-37 -268 -149 0
-148 0 5 23 c2 12 43 299 90 637 47 338 87 625 90 638 5 22 8 22 150 22 80 0
145 -4 145 -9z m1228 -468 c-37 -263 -67 -500 -65 -528 3 -74 8 -75 290 -75
l237 0 0 -109 c0 -104 -1 -109 -22 -115 -13 -4 -149 -9 -303 -13 -246 -5 -287
-4 -338 11 -104 30 -167 116 -167 227 0 24 31 274 70 554 38 281 70 513 70
518 0 4 67 7 148 7 l148 0 -68 -477z m1611 461 l43 -7 -6 -46 c-3 -25 -11 -74
-17 -108 l-11 -63 -265 0 c-280 0 -314 -5 -328 -49 -7 -23 -35 -190 -35 -213
0 -17 19 -18 256 -18 l257 0 -7 -67 c-4 -38 -9 -85 -13 -105 l-6 -38 -258 0
-259 0 -5 -22 c-14 -65 -35 -265 -30 -285 3 -13 17 -28 31 -33 14 -6 141 -10
282 -10 l258 0 -4 -107 c-2 -60 -6 -110 -8 -112 -11 -11 -280 -22 -469 -18
-168 2 -217 6 -246 20 -53 24 -97 64 -120 108 -37 73 -34 126 30 571 54 378
62 422 88 469 34 63 84 105 155 131 49 17 75 19 348 14 162 -3 315 -9 339 -12z
m1231 4 c0 -7 -7 -58 -15 -113 -8 -55 -15 -103 -15 -107 0 -4 -89 -9 -197 -10
l-198 -3 -75 -537 -74 -538 -149 0 -149 0 6 28 c7 34 146 1025 146 1041 0 8
-56 11 -196 11 -181 0 -195 1 -190 18 2 9 10 63 17 120 l12 102 539 0 c424 0
538 -3 538 -12z m989 -4 l43 -7 -6 -46 c-3 -25 -11 -74 -17 -108 l-11 -63
-265 0 c-280 0 -314 -5 -328 -49 -7 -23 -35 -190 -35 -213 0 -17 19 -18 256
-18 l257 0 -7 -67 c-4 -38 -9 -85 -13 -105 l-6 -38 -258 0 -259 0 -5 -22 c-14
-65 -35 -265 -30 -285 3 -13 17 -28 31 -33 14 -6 141 -10 282 -10 l258 0 -4
-107 c-2 -60 -6 -110 -8 -112 -11 -11 -280 -22 -469 -18 -168 2 -217 6 -246
20 -53 24 -97 64 -120 108 -37 73 -34 126 30 571 54 378 62 422 88 469 34 63
84 105 155 131 49 17 75 19 348 14 162 -3 315 -9 339 -12z m-4018 -3724 c26
-15 25 -54 -3 -67 -13 -6 -40 -11 -60 -11 -48 0 -51 25 -7 62 34 29 42 31 70
16z m1427 3 c-2 -5 -10 -25 -18 -45 -16 -44 -25 -46 -57 -16 -30 28 -29 35 10
52 35 16 71 20 65 9z m-3258 -84 c0 -17 4 -19 22 -13 20 6 21 5 9 -10 -11 -13
-11 -19 -1 -31 16 -19 -6 -53 -24 -35 -5 5 -20 10 -33 10 -16 0 -21 4 -17 15
4 8 1 15 -5 15 -6 0 -11 7 -11 16 0 8 5 12 10 9 6 -3 17 1 26 9 14 15 13 17
-8 25 -23 10 -23 10 5 10 21 1 27 -4 27 -20z m2580 -210 c19 -213 23 -296 15
-274 -4 8 -45 472 -45 499 0 5 2 7 5 4 3 -3 14 -106 25 -229z m-743 189 c-3
-8 -6 -5 -6 6 -1 11 2 17 5 13 3 -3 4 -12 1 -19z m1264 -6 c27 -15 59 -69 59
-100 0 -21 -27 -62 -41 -62 -5 0 -14 12 -20 28 -15 39 -48 72 -93 92 l-39 18
26 26 c29 29 56 28 108 -2z m-1291 -3 c7 -11 9 -27 6 -35 -12 -31 -67 -4 -65
33 0 10 3 13 6 6 2 -7 9 -13 15 -13 6 0 8 7 4 15 -9 23 22 18 34 -6z m1938
-76 c41 -5 49 -12 118 -99 53 -66 90 -103 127 -124 l52 -30 -117 0 -118 0 0
47 c0 34 -8 58 -30 93 -28 44 -35 48 -118 74 -90 27 -146 33 -157 16 -8 -12
-25 -13 -25 -1 0 5 15 16 33 25 32 17 111 16 235 -1z m-3704 -21 c-4 -20 0
-33 15 -46 12 -11 21 -24 21 -31 0 -14 -54 -55 -74 -55 -32 0 -36 94 -5 134
28 35 50 35 43 -2z m-144 -16 c10 -27 49 -58 62 -50 4 3 8 -4 8 -15 0 -32 -32
-26 -70 14 -19 19 -29 35 -22 35 16 0 15 27 0 33 -10 4 -10 6 0 6 7 1 17 -10
22 -23z m1959 -23 c-5 -16 -26 -38 -49 -51 -46 -26 -53 -15 -12 20 15 13 31
31 35 41 3 9 13 17 21 17 12 0 13 -6 5 -27z m-1711 -25 c23 -23 12 -46 -37
-82 -40 -28 -52 -32 -60 -22 -18 21 -3 47 23 40 29 -7 64 29 47 49 -19 23 5
37 27 15z m3526 -18 c30 -11 34 -36 7 -43 -28 -7 -74 -83 -75 -123 -1 -19 -4
-34 -7 -34 -3 0 -17 13 -32 28 -47 49 -29 134 35 165 39 20 40 20 72 7z
m-1686 -77 c-16 -19 -1 -30 22 -15 29 18 41 15 35 -10 -7 -34 28 -72 60 -64
28 7 30 4 13 -23 -10 -16 -7 -25 15 -54 15 -20 27 -40 27 -45 0 -11 -140 -23
-158 -13 -23 13 9 29 63 33 l50 3 -27 28 c-16 15 -35 42 -44 59 l-17 32 -23
-46 c-21 -41 -58 -68 -94 -68 -4 0 -31 33 -61 73 l-53 72 -9 -35 c-33 -121
-44 -154 -56 -158 -11 -4 -13 3 -8 29 15 79 53 218 62 227 3 3 13 -2 22 -11
10 -8 38 -17 63 -19 32 -2 46 -8 48 -19 3 -14 -4 -16 -43 -11 l-47 5 48 -67
c48 -67 49 -67 56 -39 4 15 5 51 2 79 -4 31 -2 59 5 72 10 18 15 20 36 10 20
-9 22 -14 13 -25z m1742 29 c0 -4 -10 -12 -22 -17 -17 -7 -23 -19 -23 -39 0
-24 -5 -31 -25 -36 -14 -3 -27 -16 -31 -30 -6 -21 -7 -19 -8 12 -1 30 6 45 37
78 35 36 72 53 72 32z m70 -87 c0 -30 -10 -55 -21 -55 -5 0 -9 9 -9 20 0 23
-15 27 -27 7 -4 -8 -16 -16 -25 -20 -14 -5 -17 -2 -14 16 3 12 5 25 5 28 1 4
10 9 21 12 15 4 20 14 20 39 l1 33 24 -28 c14 -15 25 -39 25 -52z m-63 31 c-8
-19 -37 -21 -37 -3 0 7 5 18 12 25 15 15 33 -1 25 -22z m-49 -68 c-4 -29 -38
-38 -38 -10 0 22 8 32 27 32 9 0 13 -8 11 -22z m-1978 -7 c0 -7 -14 -16 -62
-39 -5 -2 -8 3 -8 12 0 8 12 22 27 30 27 14 43 13 43 -3z m1988 -133 l42 -23
40 23 c49 28 64 28 118 0 l42 -23 40 23 c48 27 70 28 112 2 42 -25 59 -25 92
1 l26 20 0 -75 0 -76 -370 0 -370 0 0 70 0 70 36 -17 c34 -17 37 -17 72 4 49
27 68 28 120 1z m-734 -65 c120 -9 213 -19 206 -21 -18 -6 -439 28 -475 39
-27 8 -26 8 10 4 22 -2 139 -12 259 -22z"/>
<path d="M4887 9603 c-2 -5 -10 -26 -17 -48 -7 -22 -51 -134 -97 -249 -47
-115 -87 -215 -90 -223 -4 -10 25 -13 156 -13 137 0 161 2 161 15 0 8 -11 102
-24 208 -14 105 -28 220 -31 255 -6 57 -9 62 -30 62 -13 0 -26 -3 -28 -7z"/>
<path d="M4247 7823 c-2 -5 -10 -26 -17 -48 -7 -22 -51 -134 -97 -249 -47
-115 -87 -215 -90 -223 -4 -10 25 -13 156 -13 137 0 161 2 161 15 0 8 -11 102
-24 208 -14 105 -28 220 -31 255 -6 57 -9 62 -30 62 -13 0 -26 -3 -28 -7z"/>
<path d="M7531 3824 c0 -11 3 -14 6 -6 3 7 2 16 -1 19 -3 4 -6 -2 -5 -13z"/>
<path d="M9287 3863 c-4 -3 -7 -11 -7 -17 0 -6 5 -5 12 2 6 6 9 14 7 17 -3 3
-9 2 -12 -2z"/>
</g>
</svg>
